<mxfile host="Electron" agent="Mozilla/5.0 (Windows NT 10.0; Win64; x64) AppleWebKit/537.36 (KHTML, like Gecko) draw.io/26.0.16 Chrome/132.0.6834.196 Electron/34.2.0 Safari/537.36" version="26.0.16">
  <diagram name="Page-1" id="Neox61E2Vatp0nYVNnNG">
    <mxGraphModel dx="989" dy="577" grid="1" gridSize="10" guides="1" tooltips="1" connect="1" arrows="1" fold="1" page="1" pageScale="1" pageWidth="1169" pageHeight="827" math="0" shadow="0">
      <root>
        <mxCell id="0" />
        <mxCell id="1" parent="0" />
        <mxCell id="qWtRrwtmwvz5OWLaRLju-1" value="&lt;font style=&quot;font-size: 18px; color: rgb(0, 0, 0);&quot;&gt;&lt;b style=&quot;&quot;&gt;HID&lt;/b&gt;&lt;/font&gt;&lt;div&gt;&lt;font style=&quot;font-size: 18px; color: rgb(0, 0, 0);&quot;&gt;&lt;b style=&quot;&quot;&gt;Class Device&lt;/b&gt;&lt;/font&gt;&lt;/div&gt;" style="rounded=0;whiteSpace=wrap;html=1;strokeWidth=3;fillColor=#f5f5f5;fontColor=#333333;strokeColor=#000000;" vertex="1" parent="1">
          <mxGeometry x="120" y="320" width="200" height="160" as="geometry" />
        </mxCell>
        <mxCell id="qWtRrwtmwvz5OWLaRLju-2" value="&lt;font style=&quot;font-size: 18px; color: rgb(0, 0, 0);&quot;&gt;&lt;b style=&quot;&quot;&gt;HID&lt;/b&gt;&lt;/font&gt;&lt;div&gt;&lt;font style=&quot;font-size: 18px; color: rgb(0, 0, 0);&quot;&gt;&lt;b style=&quot;&quot;&gt;Host&lt;/b&gt;&lt;/font&gt;&lt;/div&gt;" style="rounded=0;whiteSpace=wrap;html=1;strokeWidth=3;fillColor=#f5f5f5;fontColor=#333333;strokeColor=#000000;" vertex="1" parent="1">
          <mxGeometry x="600" y="320" width="200" height="160" as="geometry" />
        </mxCell>
        <mxCell id="qWtRrwtmwvz5OWLaRLju-3" value="" style="endArrow=classic;html=1;rounded=0;exitX=1;exitY=0.25;exitDx=0;exitDy=0;entryX=0;entryY=0.25;entryDx=0;entryDy=0;strokeWidth=3;fillColor=#fff2cc;strokeColor=#d6b656;startArrow=classic;startFill=1;" edge="1" parent="1" source="qWtRrwtmwvz5OWLaRLju-1" target="qWtRrwtmwvz5OWLaRLju-2">
          <mxGeometry width="50" height="50" relative="1" as="geometry">
            <mxPoint x="560" y="450" as="sourcePoint" />
            <mxPoint x="610" y="400" as="targetPoint" />
          </mxGeometry>
        </mxCell>
        <mxCell id="qWtRrwtmwvz5OWLaRLju-4" value="" style="endArrow=none;html=1;rounded=0;exitX=0;exitY=0.75;exitDx=0;exitDy=0;entryX=1;entryY=0.75;entryDx=0;entryDy=0;strokeWidth=3;fillColor=#ffe6cc;strokeColor=#EA6B66;startArrow=classic;startFill=0;" edge="1" parent="1" source="qWtRrwtmwvz5OWLaRLju-2" target="qWtRrwtmwvz5OWLaRLju-1">
          <mxGeometry width="50" height="50" relative="1" as="geometry">
            <mxPoint x="560" y="450" as="sourcePoint" />
            <mxPoint x="610" y="400" as="targetPoint" />
          </mxGeometry>
        </mxCell>
        <mxCell id="qWtRrwtmwvz5OWLaRLju-5" value="&lt;font style=&quot;font-size: 18px; color: rgb(0, 0, 0);&quot;&gt;&lt;b style=&quot;&quot;&gt;Control Pipe&amp;nbsp;&lt;/b&gt;&lt;/font&gt;" style="text;html=1;align=center;verticalAlign=middle;whiteSpace=wrap;rounded=0;" vertex="1" parent="1">
          <mxGeometry x="360" y="320" width="200" height="40" as="geometry" />
        </mxCell>
        <mxCell id="qWtRrwtmwvz5OWLaRLju-6" value="&lt;font style=&quot;font-size: 18px; color: rgb(0, 0, 0);&quot;&gt;&lt;b style=&quot;&quot;&gt;Interrupt Pipe&lt;/b&gt;&lt;/font&gt;" style="text;html=1;align=center;verticalAlign=middle;whiteSpace=wrap;rounded=0;" vertex="1" parent="1">
          <mxGeometry x="360" y="400" width="200" height="40" as="geometry" />
        </mxCell>
      </root>
    </mxGraphModel>
  </diagram>
</mxfile>
